<?xml version="1.0" standalone="no"?> 
<!DOCTYPE svg PUBLIC "-//W3C//DTD SVG 1.1//EN" "http://www.w3.org/Graphics/SVG/1.1/DTD/svg11.dtd" >
<svg xmlns="http://www.w3.org/2000/svg">
<defs>
  <font id="bepay" horiz-adv-x="24">
    <font-face font-family="bepay"
      units-per-em="24" ascent="24"
      descent="0" />
    <missing-glyph horiz-adv-x="0" />
    <glyph glyph-name="address"
      unicode="&#xF101;"
      horiz-adv-x="24" d=" M21.447 17.895L15.447 20.895A1 1 0 0 1 14.552 20.895L9 18.118L3.447 20.895A1 1 0 0 1 2 20V7C2 6.621 2.214 6.275 2.553 6.105L8.553 3.105A1 1 0 0 1 9.448 3.105L15 5.882L20.553 3.106A0.992 0.992 0 0 1 21.525 3.149C21.82 3.332 22 3.653 22 4V17C22 17.379 21.786 17.725 21.447 17.895zM10 16.382L14 18.382V7.618L10 5.618V16.382zM4 18.382L8 16.382V5.618L4 7.618V18.382zM20 5.618L16 7.618V18.382L20 16.382V5.618z" />
    <glyph glyph-name="area"
      unicode="&#xF102;"
      horiz-adv-x="24" d=" M12 22C6.486 22 2 17.514 2 12S6.486 2 12 2S22 6.486 22 12S17.514 22 12 22zM4 12C4 12.899 4.156 13.762 4.431 14.569L6 13L8 11V9L10 7L11 6V4.069C7.061 4.564 4 7.928 4 12zM18.33 7.127C17.677 7.653 16.687 8 16 8V9A2 2 0 0 1 14 11H10V14A2 2 0 0 1 12 16V17H13A2 2 0 0 1 15 19V19.411C17.928 18.222 20 15.35 20 12A7.946999999999999 7.946999999999999 0 0 0 18.33 7.127z" />
    <glyph glyph-name="arrow-circle"
      unicode="&#xF103;"
      horiz-adv-x="24" d=" M11.999 22.007C6.485 22.006 1.999 17.52 1.999 12.006S6.485 2.006 12 2.006C17.513 2.006 21.999 6.492 22 12.006C22 17.52 17.514 22.006 11.999 22.007zM12 4.006C7.588 4.006 3.999 7.595 3.999 12.006S7.588 20.006 11.999 20.007C16.411 20.006 20 16.417 20 12.006C19.999 7.595 16.41 4.006 12 4.006z M12 13.006H8V11.006H12V8L16.005 12.005L12 16.009z" />
    <glyph glyph-name="arrow-left"
      unicode="&#xF104;"
      horiz-adv-x="24" d=" M12.707 6.707L8.414 11H18V13H8.414L12.707 17.293L11.293 18.707L4.586 12L11.293 5.293z" />
    <glyph glyph-name="arrow-right"
      unicode="&#xF105;"
      horiz-adv-x="24" d=" M11.293 6.707L12.707 5.293L19.414 12L12.707 18.707L11.293 17.293L15.586 13H6V11H15.586z" />
    <glyph glyph-name="cart"
      unicode="&#xF106;"
      horiz-adv-x="24" d=" M21 20H2V18H4.3L7.821 8.317A2.004 2.004 0 0 1 9.7 7H18V9H9.7L8.972 11H18C18.4 11 18.762 11.238 18.919 11.606L21.919 18.606A0.9980000000000001 0.9980000000000001 0 0 1 21 20z M9 4.5C9 3.6715728752538 9.6715728752538 3 10.5 3C11.3284271247462 3 12 3.6715728752538 12 4.5C12 5.3284271247462 11.3284271247462 6 10.5 6C9.6715728752538 6 9 5.3284271247462 9 4.5z M15 4.5C15 3.6715728752538 15.6715728752538 3 16.5 3C17.3284271247462 3 18 3.6715728752538 18 4.5C18 5.3284271247462 17.3284271247462 6 16.5 6C15.6715728752538 6 15 5.3284271247462 15 4.5z" />
    <glyph glyph-name="check-circle"
      unicode="&#xF107;"
      horiz-adv-x="24" d=" M12 22C6.486 22 2 17.514 2 12S6.486 2 12 2S22 6.486 22 12S17.514 22 12 22zM10.001 7.587L6.288 11.292L7.7 12.708L9.999 10.413L15.293 15.707L16.707 14.293L10.001 7.587z" />
    <glyph glyph-name="chevron-up-circle"
      unicode="&#xF108;"
      horiz-adv-x="24" d=" M12 22C6.486 22 2 17.514 2 12S6.486 2 12 2S22 6.486 22 12S17.514 22 12 22zM16.293 9.293L12 13.586L7.707 9.293L6.293 10.707L12 16.414L17.707 10.707L16.293 9.293z" />
    <glyph glyph-name="facebook"
      unicode="&#xF109;"
      horiz-adv-x="24" d=" M13.397 3.003V11.199H16.162L16.573 14.408H13.397V16.452C13.397 17.378 13.655 18.012 14.984 18.012H16.668V20.873A22.336 22.336 0 0 1 14.201 21C11.757 21 10.079 19.508 10.079 16.769V14.414H7.332V11.205H10.085V3.003H13.397z" />
    <glyph glyph-name="flex"
      unicode="&#xF10A;"
      horiz-adv-x="24" d=" M3 19V5C3 3.897 3.897 3 5 3H19C20.103 3 21 3.897 21 5V19C21 20.103 20.103 21 19 21H5C3.897 21 3 20.103 3 19zM19.001 5H5V19H19L19.001 5z M11 17H13V7H11zM15 14H17V7H15zM7 12H9V7H7z" />
    <glyph glyph-name="hor-lines"
      unicode="&#xF10B;"
      horiz-adv-x="24" d=" M4 18H20V16H4zM4 13H20V11H4zM4 8H20V6H4z" />
    <glyph glyph-name="info"
      unicode="&#xF10C;"
      horiz-adv-x="24" d=" M12 22C6.486 22 2 17.514 2 12S6.486 2 12 2S22 6.486 22 12S17.514 22 12 22zM13 7H11V13H13V7zM13 15H11V17H13V15z" />
    <glyph glyph-name="lock"
      unicode="&#xF10D;"
      horiz-adv-x="24" d=" M12 22C9.243 22 7 19.757 7 17V14H6A2 2 0 0 1 4 12V4A2 2 0 0 1 6 2H18A2 2 0 0 1 20 4V12A2 2 0 0 1 18 14H17V17C17 19.757 14.757 22 12 22zM9 17C9 18.654 10.346 20 12 20S15 18.654 15 17V14H9V17zM13 6.277V4H11V6.277A1.993 1.993 0 0 0 11.567 9.954A2.001 2.001 0 0 0 14 8A1.9900000000000002 1.9900000000000002 0 0 0 13 6.277z" />
    <glyph glyph-name="mail"
      unicode="&#xF10E;"
      horiz-adv-x="24" d=" M20 20H4A2 2 0 0 1 2 18V6A2 2 0 0 1 4 4H20A2 2 0 0 1 22 6V18A2 2 0 0 1 20 20zM20 15.3L12 9.966L4 15.3V17.703L12 12.37L20 17.703V15.3z" />
    <glyph glyph-name="menu-close"
      unicode="&#xF10F;"
      horiz-adv-x="24" d=" M16.192 17.656L11.949 13.414L7.707 17.656L6.293 16.242L10.535 12L6.293 7.758L7.707 6.344L11.949 10.586L16.192 6.344L17.606 7.758L13.364 12L17.606 16.242z" />
    <glyph glyph-name="menu-open"
      unicode="&#xF110;"
      horiz-adv-x="24" d=" M4 18H20V16H4zM4 13H20V11H4zM4 8H20V6H4z" />
    <glyph glyph-name="pay"
      unicode="&#xF111;"
      horiz-adv-x="24" d=" M21 20H3A1 1 0 0 1 2 19V5A1 1 0 0 1 3 4H21A1 1 0 0 1 22 5V19A1 1 0 0 1 21 20zM20 9A3 3 0 0 1 17 6H7A3 3 0 0 1 4 9V15A3 3 0 0 1 7 18H17A3 3 0 0 1 20 15V9z M12 16C9.794 16 8 14.206 8 12S9.794 8 12 8S16 9.794 16 12S14.206 16 12 16zM12 10C10.897 10 10 10.897 10 12S10.897 14 12 14S14 13.103 14 12S13.103 10 12 10z" />
    <glyph glyph-name="phone"
      unicode="&#xF112;"
      horiz-adv-x="24" d=" M20.487 6.86L16.422 10.556A1.001 1.001 0 0 1 15.031 10.513L12.638 8.052C12.062 8.162 10.904 8.523 9.712 9.712C8.52 10.905 8.159 12.066 8.052 12.638L10.511 15.032A1 1 0 0 1 10.554 16.423L6.859 20.487A1 1 0 0 1 5.468 20.574L3.298 18.713A1 1 0 0 1 3.008 18.064C2.993 17.814 2.707 11.892 7.299 7.298C11.305 3.293 16.323 3 17.705 3C17.907 3 18.031 3.006 18.064 3.008A0.992 0.992 0 0 1 18.712 3.299L20.572 5.47A0.997 0.997 0 0 1 20.487 6.86z" />
    <glyph glyph-name="stats"
      unicode="&#xF113;"
      horiz-adv-x="24" d=" M3 21V4A1 1 0 0 1 4 3H21V5H5V21H3z M15.293 9.293A0.9989999999999999 0.9989999999999999 0 0 1 16.707 9.293L21.707 14.293L20.293 15.707L16 11.414L13.707 13.707A0.9989999999999999 0.9989999999999999 0 0 1 12.293 13.707L7.293 8.707L8.707 7.293L13 11.586L15.293 9.293z" />
    <glyph glyph-name="twitter"
      unicode="&#xF114;"
      horiz-adv-x="24" d=" M19.633 16.003C19.646 15.828 19.646 15.654 19.646 15.48C19.646 10.155 15.593 4.019 8.186 4.019C5.904 4.019 3.784 4.68 2 5.828C2.324 5.791 2.636 5.778 2.973 5.778A8.07 8.07 0 0 1 7.974 7.499A4.036 4.036 0 0 0 4.207 10.292C4.456 10.255 4.706 10.23 4.968 10.23C5.329 10.23 5.692 10.28 6.029 10.367A4.027 4.027 0 0 0 2.799 14.32V14.37C3.336 14.071 3.959 13.884 4.619 13.859A4.022 4.022 0 0 0 2.823 17.213C2.823 17.961 3.022 18.647 3.371 19.245A11.457 11.457 0 0 1 11.677 15.03C11.615 15.33 11.577 15.641 11.577 15.953A4.026 4.026 0 0 0 15.605 19.981C16.765 19.981 17.812 19.495 18.548 18.709A7.957 7.957 0 0 1 21.104 19.682A4.02 4.02 0 0 0 19.333 17.462A8.073 8.073 0 0 1 21.652 18.086A8.645 8.645 0 0 0 19.633 16.003z" />
    <glyph glyph-name="watch"
      unicode="&#xF115;"
      horiz-adv-x="24" d=" M18 13C18 13.959 17.32 14.761 16.419 14.954C16.779 15.555 17 16.25 17 17C17 19.206 15.206 21 13 21C11.483 21 10.179 20.143 9.5 18.896C8.821 20.143 7.517 21 6 21C3.794 21 2 19.206 2 17C2 16.098 2.312 15.273 2.817 14.604A1.994 1.994 0 0 1 2 13V5C2 3.897 2.897 3 4 3H16C17.103 3 18 3.897 18 5V7.638L22 5.638V12.638L18 10.638V13zM13 19C14.103 19 15 18.103 15 17S14.103 15 13 15S11 15.897 11 17S11.897 19 13 19zM6 19C7.103 19 8 18.103 8 17S7.103 15 6 15S4 15.897 4 17S4.897 19 6 19zM4 5V13H16L16.002 5H4z" />
    <glyph glyph-name="web"
      unicode="&#xF116;"
      horiz-adv-x="24" d=" M19 21H5C3.897 21 3 20.103 3 19V15H21V19C21 20.103 20.103 21 19 21zM3 5C3 3.897 3.897 3 5 3H13V13H3V5zM15 3H19C20.103 3 21 3.897 21 5V13H15V3z" />
  </font>
</defs>
</svg>
